<?xml version="1.0" encoding="utf-8" ?>
<svg baseProfile="full" height="400px" version="1.1" width="300px" xmlns="http://www.w3.org/2000/svg" xmlns:ev="http://www.w3.org/2001/xml-events" xmlns:xlink="http://www.w3.org/1999/xlink"><defs><clipPath id="clip_bird_cage"><circle cx="30.0" cy="30.0" r="30.0" /></clipPath><clipPath id="clip_coffee"><circle cx="30.0" cy="30.0" r="30.0" /></clipPath><clipPath id="clip_shoes"><circle cx="30.0" cy="30.0" r="30.0" /></clipPath><clipPath id="clip_fish_bowl"><circle cx="30.0" cy="30.0" r="30.0" /></clipPath><clipPath id="clip_ball_of_yarn"><circle cx="30.0" cy="30.0" r="30.0" /></clipPath><clipPath id="clip_plant"><circle cx="30.0" cy="30.0" r="30.0" /></clipPath></defs><rect fill="#4CAF50" height="100%" rx="10" ry="10" width="100%" x="0" y="0" /><rect fill="white" height="380px" rx="5" ry="5" width="280px" x="10" y="10" /><ellipse cx="150" cy="220" fill="#F5DEB3" rx="120px" ry="160px" /><use x="120.0" xlink:href="#id1" y="50.0" /><use x="210.0" xlink:href="#id2" y="130.0" /><use x="210.0" xlink:href="#id3" y="250.0" /><circle cx="240" cy="280" fill="none" r="32.0" stroke="red" stroke-width="2" /><use x="120.0" xlink:href="#id4" y="330.0" /><use x="30.0" xlink:href="#id5" y="250.0" /><use x="30.0" xlink:href="#id6" y="130.0" /><text fill="black" font-family="Arial, sans-serif" font-size="14px" font-weight="bold" text-anchor="middle" x="270" y="280">Tom Cat</text><text fill="black" font-family="Arial, sans-serif" font-size="14px" font-weight="bold" text-anchor="middle" x="270" y="160">Ginger</text><text fill="black" font-family="Arial, sans-serif" font-size="14px" font-weight="bold" text-anchor="middle" x="30" y="280">Pip Squeak</text><text fill="black" font-family="Arial, sans-serif" font-size="14px" font-weight="bold" text-anchor="middle" x="150" y="400">Mr. Mittens</text><text fill="black" font-family="Arial Black, sans-serif" font-size="20px" font-weight="bold" x="20" y="40">THE GUILTY CAT IS...</text><line stroke="black" stroke-width="2" x1="20" x2="280" y1="45" y2="45" /><text fill="red" font-family="Arial, sans-serif" font-size="20px" font-weight="bold" text-anchor="end" x="280" y="40">Tom Cat</text></svg>