<?xml version="1.0" encoding="utf-8" ?>
<svg baseProfile="full" height="400px" version="1.1" width="300px" xmlns="http://www.w3.org/2000/svg" xmlns:ev="http://www.w3.org/2001/xml-events" xmlns:xlink="http://www.w3.org/1999/xlink"><defs /><rect fill="#4CAF50" height="100%" rx="10" ry="10" width="100%" x="0" y="0" /><rect fill="white" height="380px" rx="5" ry="5" width="280px" x="10" y="10" /><ellipse cx="150" cy="220" fill="#F5DEB3" rx="120px" ry="160px" /><text fill="black" font-family="Arial, sans-serif" font-size="14px" font-weight="bold" text-anchor="middle" x="150" y="380">Duchess</text><text fill="black" font-family="Arial, sans-serif" font-size="14px" font-weight="bold" text-anchor="middle" x="50" y="300">Sassy</text><text fill="black" font-family="Arial, sans-serif" font-size="14px" font-weight="bold" text-anchor="middle" x="240" y="300">Ginger</text><text fill="black" font-family="Arial, sans-serif" font-size="14px" font-weight="bold" text-anchor="middle" x="240" y="140">Pip Squeak</text><image height="60" width="60" x="120.0" xlink:href="file:///Users/rob/Dropbox/Programming/p-games/cat-crimes/images/bird_cage.webp" y="50.0" /><image height="60" width="60" x="210.0" xlink:href="file:///Users/rob/Dropbox/Programming/p-games/cat-crimes/images/coffee.webp" y="130.0" /><image height="60" width="60" x="210.0" xlink:href="file:///Users/rob/Dropbox/Programming/p-games/cat-crimes/images/shoes.webp" y="250.0" /><image height="60" width="60" x="120.0" xlink:href="file:///Users/rob/Dropbox/Programming/p-games/cat-crimes/images/fish_bowl.webp" y="330.0" /><circle cx="150" cy="360" fill="none" r="30.0" stroke="red" stroke-width="2" /><image height="60" width="60" x="30.0" xlink:href="file:///Users/rob/Dropbox/Programming/p-games/cat-crimes/images/ball_of_yarn.webp" y="250.0" /><image height="60" width="60" x="30.0" xlink:href="file:///Users/rob/Dropbox/Programming/p-games/cat-crimes/images/plant.webp" y="130.0" /><text fill="black" font-family="Arial Black, sans-serif" font-size="20px" font-weight="bold" x="20" y="40">THE GUILTY CAT IS...</text><line stroke="black" stroke-width="2" x1="20" x2="280" y1="45" y2="45" /><text fill="red" font-family="Arial, sans-serif" font-size="20px" font-weight="bold" text-anchor="end" x="280" y="65">Duchess</text></svg>